<mxfile host="www.draw.io" modified="2019-10-19T20:35:31.329Z" agent="Mozilla/5.0 (Macintosh; Intel Mac OS X 10_14_6) AppleWebKit/537.36 (KHTML, like Gecko) Chrome/77.0.3865.90 Safari/537.36" etag="BDzcURlz0kWHbqlOQLJh" version="12.1.3" type="github" pages="1">
  <diagram name="Page-1" id="90a13364-a465-7bf4-72fc-28e22215d7a0">
    <mxGraphModel dx="932" dy="600" grid="1" gridSize="10" guides="1" tooltips="1" connect="1" arrows="1" fold="1" page="1" pageScale="1.5" pageWidth="1169" pageHeight="826" background="#ffffff" math="0" shadow="0">
      <root>
        <mxCell id="0" style=";html=1;"/>
        <mxCell id="1" style=";html=1;" parent="0"/>
        <mxCell id="6AYyEVtHDju9qtjBgxED-3" value="exchange office" style="rounded=1;whiteSpace=wrap;html=1;fontSize=19;" parent="1" vertex="1">
          <mxGeometry x="766.5" y="340" width="211" height="50" as="geometry"/>
        </mxCell>
        <mxCell id="6AYyEVtHDju9qtjBgxED-21" style="edgeStyle=orthogonalEdgeStyle;rounded=0;orthogonalLoop=1;jettySize=auto;html=1;exitX=0.75;exitY=0.1;exitDx=0;exitDy=0;exitPerimeter=0;fontSize=19;" parent="1" source="6AYyEVtHDju9qtjBgxED-4" target="6AYyEVtHDju9qtjBgxED-17" edge="1">
          <mxGeometry relative="1" as="geometry"/>
        </mxCell>
        <mxCell id="6AYyEVtHDju9qtjBgxED-23" style="edgeStyle=orthogonalEdgeStyle;rounded=0;orthogonalLoop=1;jettySize=auto;html=1;entryX=0;entryY=0.5;entryDx=0;entryDy=0;fontSize=19;" parent="1" target="6AYyEVtHDju9qtjBgxED-22" edge="1">
          <mxGeometry relative="1" as="geometry">
            <mxPoint x="540" y="606" as="sourcePoint"/>
          </mxGeometry>
        </mxCell>
        <mxCell id="6AYyEVtHDju9qtjBgxED-24" style="edgeStyle=orthogonalEdgeStyle;rounded=0;orthogonalLoop=1;jettySize=auto;html=1;exitX=0.75;exitY=0.1;exitDx=0;exitDy=0;exitPerimeter=0;entryX=0;entryY=0.25;entryDx=0;entryDy=0;fontSize=19;" parent="1" source="6AYyEVtHDju9qtjBgxED-4" target="6AYyEVtHDju9qtjBgxED-15" edge="1">
          <mxGeometry relative="1" as="geometry"/>
        </mxCell>
        <mxCell id="6AYyEVtHDju9qtjBgxED-27" style="edgeStyle=orthogonalEdgeStyle;rounded=0;orthogonalLoop=1;jettySize=auto;html=1;exitX=0.75;exitY=0.1;exitDx=0;exitDy=0;exitPerimeter=0;entryX=0;entryY=0.5;entryDx=0;entryDy=0;fontSize=19;" parent="1" source="6AYyEVtHDju9qtjBgxED-4" target="6AYyEVtHDju9qtjBgxED-25" edge="1">
          <mxGeometry relative="1" as="geometry"/>
        </mxCell>
        <mxCell id="6AYyEVtHDju9qtjBgxED-39" style="edgeStyle=orthogonalEdgeStyle;rounded=0;orthogonalLoop=1;jettySize=auto;html=1;exitX=0.75;exitY=0.1;exitDx=0;exitDy=0;exitPerimeter=0;fontSize=19;" parent="1" source="6AYyEVtHDju9qtjBgxED-4" edge="1">
          <mxGeometry relative="1" as="geometry">
            <mxPoint x="560" y="606" as="targetPoint"/>
          </mxGeometry>
        </mxCell>
        <mxCell id="6AYyEVtHDju9qtjBgxED-4" value="User" style="shape=umlActor;verticalLabelPosition=bottom;labelBackgroundColor=#ffffff;verticalAlign=top;html=1;outlineConnect=0;fontSize=19;" parent="1" vertex="1">
          <mxGeometry x="510" y="600" width="30" height="64" as="geometry"/>
        </mxCell>
        <mxCell id="6AYyEVtHDju9qtjBgxED-14" style="edgeStyle=orthogonalEdgeStyle;rounded=0;orthogonalLoop=1;jettySize=auto;html=1;exitX=0.5;exitY=0;exitDx=0;exitDy=0;exitPerimeter=0;entryX=1;entryY=0.5;entryDx=0;entryDy=0;fontSize=19;" parent="1" source="6AYyEVtHDju9qtjBgxED-9" target="6AYyEVtHDju9qtjBgxED-12" edge="1">
          <mxGeometry relative="1" as="geometry"/>
        </mxCell>
        <mxCell id="6AYyEVtHDju9qtjBgxED-40" style="edgeStyle=orthogonalEdgeStyle;rounded=0;orthogonalLoop=1;jettySize=auto;html=1;exitX=0.5;exitY=0;exitDx=0;exitDy=0;exitPerimeter=0;fontSize=19;" parent="1" source="6AYyEVtHDju9qtjBgxED-9" edge="1">
          <mxGeometry relative="1" as="geometry">
            <mxPoint x="1265" y="510" as="targetPoint"/>
          </mxGeometry>
        </mxCell>
        <mxCell id="6AYyEVtHDju9qtjBgxED-9" value="Admin / cashier" style="shape=umlActor;verticalLabelPosition=bottom;labelBackgroundColor=#ffffff;verticalAlign=top;html=1;outlineConnect=0;fontSize=19;" parent="1" vertex="1">
          <mxGeometry x="1250" y="604" width="30" height="60" as="geometry"/>
        </mxCell>
        <mxCell id="6AYyEVtHDju9qtjBgxED-18" style="edgeStyle=orthogonalEdgeStyle;rounded=0;orthogonalLoop=1;jettySize=auto;html=1;exitX=0;exitY=0.75;exitDx=0;exitDy=0;entryX=0.5;entryY=0;entryDx=0;entryDy=0;fontSize=19;" parent="1" source="6AYyEVtHDju9qtjBgxED-12" target="6AYyEVtHDju9qtjBgxED-15" edge="1">
          <mxGeometry relative="1" as="geometry">
            <Array as="points">
              <mxPoint x="780" y="465"/>
              <mxPoint x="725" y="465"/>
            </Array>
          </mxGeometry>
        </mxCell>
        <mxCell id="6AYyEVtHDju9qtjBgxED-19" style="edgeStyle=orthogonalEdgeStyle;rounded=0;orthogonalLoop=1;jettySize=auto;html=1;exitX=0.5;exitY=1;exitDx=0;exitDy=0;entryX=1;entryY=0.5;entryDx=0;entryDy=0;fontSize=19;" parent="1" source="6AYyEVtHDju9qtjBgxED-12" target="6AYyEVtHDju9qtjBgxED-17" edge="1">
          <mxGeometry relative="1" as="geometry"/>
        </mxCell>
        <mxCell id="6AYyEVtHDju9qtjBgxED-29" style="edgeStyle=orthogonalEdgeStyle;rounded=0;orthogonalLoop=1;jettySize=auto;html=1;exitX=0.5;exitY=1;exitDx=0;exitDy=0;entryX=1;entryY=0.5;entryDx=0;entryDy=0;fontSize=19;" parent="1" source="6AYyEVtHDju9qtjBgxED-12" target="6AYyEVtHDju9qtjBgxED-22" edge="1">
          <mxGeometry relative="1" as="geometry"/>
        </mxCell>
        <mxCell id="6AYyEVtHDju9qtjBgxED-31" style="edgeStyle=orthogonalEdgeStyle;rounded=0;orthogonalLoop=1;jettySize=auto;html=1;exitX=0.75;exitY=1;exitDx=0;exitDy=0;entryX=0;entryY=0.5;entryDx=0;entryDy=0;fontSize=19;" parent="1" source="6AYyEVtHDju9qtjBgxED-12" target="6AYyEVtHDju9qtjBgxED-28" edge="1">
          <mxGeometry relative="1" as="geometry"/>
        </mxCell>
        <mxCell id="6AYyEVtHDju9qtjBgxED-34" style="edgeStyle=orthogonalEdgeStyle;rounded=0;orthogonalLoop=1;jettySize=auto;html=1;exitX=0.75;exitY=1;exitDx=0;exitDy=0;entryX=0;entryY=0.5;entryDx=0;entryDy=0;fontSize=19;" parent="1" source="6AYyEVtHDju9qtjBgxED-12" target="6AYyEVtHDju9qtjBgxED-32" edge="1">
          <mxGeometry relative="1" as="geometry"/>
        </mxCell>
        <mxCell id="6AYyEVtHDju9qtjBgxED-36" style="edgeStyle=orthogonalEdgeStyle;rounded=0;orthogonalLoop=1;jettySize=auto;html=1;exitX=0.75;exitY=1;exitDx=0;exitDy=0;entryX=0;entryY=0.5;entryDx=0;entryDy=0;fontSize=19;" parent="1" source="6AYyEVtHDju9qtjBgxED-12" target="6AYyEVtHDju9qtjBgxED-35" edge="1">
          <mxGeometry relative="1" as="geometry"/>
        </mxCell>
        <mxCell id="6AYyEVtHDju9qtjBgxED-38" style="edgeStyle=orthogonalEdgeStyle;rounded=0;orthogonalLoop=1;jettySize=auto;html=1;exitX=0.5;exitY=1;exitDx=0;exitDy=0;fontSize=19;" parent="1" source="6AYyEVtHDju9qtjBgxED-12" edge="1">
          <mxGeometry relative="1" as="geometry">
            <mxPoint x="865" y="580" as="targetPoint"/>
          </mxGeometry>
        </mxCell>
        <mxCell id="6AYyEVtHDju9qtjBgxED-12" value="Authentication" style="rounded=0;whiteSpace=wrap;html=1;fontSize=19;" parent="1" vertex="1">
          <mxGeometry x="780" y="430" width="170" height="70" as="geometry"/>
        </mxCell>
        <mxCell id="6AYyEVtHDju9qtjBgxED-15" value="" style="rounded=0;whiteSpace=wrap;html=1;fontSize=19;" parent="1" vertex="1">
          <mxGeometry x="630" y="554" width="190" height="50" as="geometry"/>
        </mxCell>
        <mxCell id="6AYyEVtHDju9qtjBgxED-16" value="Currency Converter" style="text;html=1;fontSize=19;" parent="1" vertex="1">
          <mxGeometry x="640" y="560" width="190" height="40" as="geometry"/>
        </mxCell>
        <mxCell id="6AYyEVtHDju9qtjBgxED-17" value="History of operations" style="rounded=0;whiteSpace=wrap;html=1;fontSize=19;" parent="1" vertex="1">
          <mxGeometry x="630" y="632" width="190" height="48" as="geometry"/>
        </mxCell>
        <mxCell id="6AYyEVtHDju9qtjBgxED-22" value="Download history" style="rounded=0;whiteSpace=wrap;html=1;fontSize=19;align=center;" parent="1" vertex="1">
          <mxGeometry x="630" y="700" width="190" height="50" as="geometry"/>
        </mxCell>
        <mxCell id="6AYyEVtHDju9qtjBgxED-25" value="" style="rounded=0;whiteSpace=wrap;html=1;fontSize=19;" parent="1" vertex="1">
          <mxGeometry x="630" y="780" width="190" height="50" as="geometry"/>
        </mxCell>
        <mxCell id="6AYyEVtHDju9qtjBgxED-26" value="Issuance of a receipt" style="text;html=1;fontSize=19;" parent="1" vertex="1">
          <mxGeometry x="635" y="785" width="200" height="40" as="geometry"/>
        </mxCell>
        <mxCell id="6AYyEVtHDju9qtjBgxED-28" value="" style="rounded=0;whiteSpace=wrap;html=1;fontSize=19;align=center;" parent="1" vertex="1">
          <mxGeometry x="970" y="554" width="190" height="46" as="geometry"/>
        </mxCell>
        <mxCell id="6AYyEVtHDju9qtjBgxED-30" value="Currency adjustment" style="text;html=1;fontSize=19;" parent="1" vertex="1">
          <mxGeometry x="977.5" y="560" width="200" height="40" as="geometry"/>
        </mxCell>
        <mxCell id="6AYyEVtHDju9qtjBgxED-32" value="" style="rounded=0;whiteSpace=wrap;html=1;fontSize=19;align=center;" parent="1" vertex="1">
          <mxGeometry x="970" y="622.5" width="190" height="50" as="geometry"/>
        </mxCell>
        <mxCell id="6AYyEVtHDju9qtjBgxED-33" value="View statistics" style="text;html=1;fontSize=19;" parent="1" vertex="1">
          <mxGeometry x="995" y="627.5" width="140" height="40" as="geometry"/>
        </mxCell>
        <mxCell id="6AYyEVtHDju9qtjBgxED-35" value="Download statistics" style="rounded=0;whiteSpace=wrap;html=1;fontSize=19;align=center;" parent="1" vertex="1">
          <mxGeometry x="970" y="695" width="190" height="45" as="geometry"/>
        </mxCell>
      </root>
    </mxGraphModel>
  </diagram>
</mxfile>
